<?xml version="1.0" encoding="UTF-8"?>
<svg version="1.1" viewBox="0 0 2000 1500" xmlns="http://www.w3.org/2000/svg">
<rect width="2e3" height="1500" fill="#444"/>
<g transform="matrix(.44444 0 0 .44444 555.56 250)">
<svg width="2e3" height="2250" data-background-color="#444444" viewBox="0 0 320 360" xmlns="http://www.w3.org/2000/svg" xmlns:xlink="http://www.w3.org/1999/xlink">
<g>
<svg width="320" height="360" viewBox="0 0 320 360">
<svg/>
<svg width="320" height="360" viewBox="0 0 320 360">
<path d="m20.961 227.22 3.726 4.658-1.863-6.056c-0.466-2.795-3.726 0.466-1.863 1.398m4.192-2.795c1.397 2.329 2.795 4.658 2.795 6.987 0 3.261 2.795 4.658 5.123 5.589-3.261-3.726-5.124-13.974-7.918-12.576m178.86-197.5c7.918 0 15.371-0.932 23.756 0.931 20.495 5.124 37.729 15.371 49.374 29.811l32.606 52.169c1.397 13.042 4.192 27.482 3.726 43.319 3.261 0 2.795-4.658 6.521-5.59-3.726 9.316-5.59 20.961-6.521 34.469-2.329-7.453 0-18.632 0.466-24.687-3.261 5.124-5.124 1.397-5.124-0.932 0.466-3.726-1.397-3.261-2.795-4.658-5.124-4.658-8.384-9.782-12.11-17.7 2.329-6.055 2.795-14.905-4.658-19.563-2.329-1.397-5.124-3.726-6.521-7.453-1.863-5.124-5.124-11.179-4.193-19.097 0.466-2.329-6.987 5.124-11.179 1.863-18.166-12.576-36.332-27.016-58.224-39.127-11.645 0-20.029-4.192-24.221-9.316-3.726-4.658-0.932-10.713 4.658-11.179 3.261 0 6.987-0.932 9.782 0.932 0.466-1.863 2.329-4.192 4.657-4.192m-46.113-10.714 0.932 0.466c4.658 0.932 6.987 7.453 12.11 5.124 0 3.261 0.466 6.521-0.466 8.85-1.397 3.726-5.59 3.726-8.85 3.726-31.208-1.863-49.374 11.179-68.471 22.358-5.124 3.261-10.713 5.59-14.906 9.782-20.029 18.632-41.921 35.866-47.045 70.335l-4.192 38.195c-0.466 4.192-5.124 8.384-4.192 13.508l3.26 22.824c-3.261-3.261-5.124 0.932-4.192 2.795 0.466 1.397 2.329 6.055 5.124 1.863 3.726 6.987 7.453 20.495 12.576 26.55 15.837 18.632 36.332 35.4 53.101 52.169 4.192-0.932 7.453-0.932 8.384-3.727 1.397 2.795-1.397 5.59-3.726 6.056 7.453 4.658 15.837 8.85 27.016 9.781 14.44 0.932 27.948 3.261 40.524 6.522 6.521-1.863 13.042-2.795 20.029-3.261 2.329 0 3.726-3.726 6.521-4.658l0.466-4.658c2.795 4.192 2.329-1.397 0.466-4.192 3.261 2.795 4.192 5.124 5.589 6.987 0-1.397 3.726-6.521 3.727-0.466l0.931-6.055c1.397-0.932 1.863 5.124 3.261 0.931 1.397-4.192 4.192-0.932 6.987-2.329-0.932 1.863-0.466 5.59 2.794 3.261l3.727-3.261c2.329 5.59 6.055 3.261 7.918 2.329 20.495-13.042 40.99-28.413 60.553-43.784l-0.466 6.055 2.329-7.453c2.329 2.329 4.192 0.466 5.124-0.931 2.795-4.658 6.521-9.316 12.577-13.508-7.453 20.029-16.303 35.866-27.482 48.908l-4.658 5.59c0 3.261-0.932 7.453-4.658 7.918-1.863 0.466-5.59-0.932-8.384 1.863-1.397 1.863 3.261 5.59-0.466 2.795-3.261-2.329-6.521 0-10.248 0.932-2.795 0.932 1.863 3.726 2.795 5.589s1.863 3.726 1.398 6.056l-5.124-5.59c-6.055 3.261-9.782 9.316-14.906 13.974-2.329 1.863-1.397 5.124-1.397 7.918-3.261 0-6.987-0.932-8.85 0.932-1.397 1.863-0.932 4.658-0.932 7.453-4.658-0.466-5.124-7.453-9.315-6.056-4.192 0.932-8.85 1.397-12.577 3.727 2.795 5.59-4.658 2.329-3.726 3.26-6.987-4.192-13.042-7.453-20.495-4.658-15.837-5.124-35.4-2.795-49.84-0.931 0-2.329 0.466-4.658-0.466-5.124-0.932 2.329-3.726 1.397-3.26 1.397-8.85-6.055-17.7-9.782-27.016-14.905-8.384 0.932-16.303-3.261-18.632-5.59-6.521-6.055-13.974-2.795-20.029-4.192-13.042-3.261-17.7-16.769-19.098-26.084-0.932-4.658-4.658-6.521-6.055-6.056-6.055-19.563-15.371-37.263-22.824-55.429-1.863-4.658-1.397-9.316-1.397-14.44 2.329 0.932 4.658 0.466 4.192-2.794-2.329-15.371-7.918-27.016-13.974-38.195 3.261-15.837 3.726-34.469 11.179-48.443 6.521-12.576 18.632-19.098 27.016-29.811 2.795-3.726 2.795-8.85 5.59-12.11 9.316-9.316 18.632-19.098 28.879-27.482 4.658-3.726 10.247 0 17.234-1.397 2.329-8.384 11.645-15.837 20.495-13.508 3.726 0.932 11.179-8.85 13.508-9.782 3.726-1.397 1.863 3.726 1.863 6.987 8.85-6.987 20.961-10.713 32.14-14.906" fill="#fff" data-fill-palette-color="tertiary"/>
<g transform="translate(64 151.67)">
<svg width="192" height="56.651" viewBox="0 0 192 56.651242528870114">
<svg width="192" height="56.651" viewBox="0 0 192 56.651242528870114">
<svg width="192" height="56.651" viewBox="0 0 281.8572599434461 83.1643957894737">
<g transform="translate(0 1.4643)">
<svg width="192" height="80.236" viewBox="0 0 192 80.2357894736842">
<svg width="192" height="80.236" viewBox="0 0 192 80.2357894736842">
<svg width="192" height="80.236" viewBox="0 0 192 80.2357894736842">
<g>
<svg width="192" height="80.236" data-palette-color="#ffffff" viewBox="1 -41.5 142.49000549316406 59.54999923706055">
<path class="undefined-text-0" d="m22.1-19.9q-0.05 0.95-0.32 1.97-0.28 1.03-0.68 1.86-0.4 0.82-0.85 1.37t-0.85 0.55q-0.55-0.05-0.65-0.75 0-0.15 0.13-0.48 0.12-0.32 0.27-0.72t0.28-0.8q0.12-0.4 0.12-0.7 0-0.7-0.32-1.18-0.33-0.47-0.88-0.47-2 0-3.05 2.5t-1.05 7.35q0 0.5 0.05 0.6 1.05-0.05 1.88-0.08 0.82-0.02 1.62-0.02 0.05 0.1 0.05 0.4 0 0.45-0.2 0.65-1.15 0.25-1.82 0.42-0.68 0.18-1.03 0.33t-0.42 0.32q-0.08 0.18-0.08 0.48 0 0.4 0.03 0.8 0.02 0.4 0.02 1 0 4.2-2.27 6.75-2.28 2.55-6.33 2.95-0.7-0.05-1.45-0.4t-1.42-0.9q-0.68-0.55-1.18-1.22-0.5-0.68-0.7-1.38 0-1.9 0.8-3.63 0.8-1.72 2.18-3.05 1.37-1.32 3.25-2.15 1.87-0.82 4.07-0.97 0-1.25-0.25-2.45t-0.52-2.33q-0.28-1.12-0.53-2.2-0.25-1.07-0.25-2.12 0-1.35 0.55-2.68 0.55-1.32 1.45-2.45 0.9-1.12 2.1-1.92t2.5-1.1q0.55 0.15 1.47 0.87 0.93 0.73 1.83 1.63t1.6 1.82q0.7 0.93 0.85 1.53zm-16.5 22.8q1.2-0.5 2.28-1.45 1.07-0.95 1.87-2.15t1.28-2.55q0.47-1.35 0.47-2.65-1 0.15-2.2 0.92-1.2 0.78-2.25 1.85-1.05 1.08-1.75 2.23t-0.7 2q0 1.1 1 1.8zm22.35-22.05h-2.85q-0.25-0.3-0.45-1.28-0.2-0.97-0.2-1.67 1.3 0.1 2.5 0.17 1.2 0.08 2.2 0.13 0.75-1.5 1.62-2.98 0.88-1.47 1.7-2.7 0.83-1.22 1.55-2.07 0.73-0.85 1.13-1.1 0.5 0 1.27 0.17 0.78 0.18 1.58 0.45 0.8 0.28 1.45 0.58t0.9 0.6q-1.5 1.9-2.58 3.52-1.07 1.63-2.32 3.73 1 0 2.02-0.05 1.03-0.05 2.08-0.15 0.25 0.25 0.4 0.62 0.15 0.38 0.15 0.78-2.45 0.9-5.95 1-1.25 2.4-2.23 4.77-0.97 2.38-1.65 4.58-0.67 2.2-1.05 4.15-0.37 1.95-0.37 3.5 0 2.2 1.65 2.45 1.5-0.2 2.85-0.75t2.4-1.4q0.3 0.45 0.35 0.75-0.3 0.45-1.03 1.05-0.72 0.6-1.57 1.18-0.85 0.57-1.65 0.97t-1.2 0.45q-1.25-0.05-2.5-0.55t-2.28-1.25q-1.02-0.75-1.67-1.68-0.65-0.92-0.65-1.82 0-1.2 0.32-3.03 0.33-1.82 0.93-3.97t1.4-4.5 1.75-4.65zm30.6 11.4q-1.15 3.65-2.3 6.65t-2.45 5.52q-1.3 2.53-2.8 4.66-1.5 2.12-3.3 4.02-2.3 2.4-4.75 3.68-2.45 1.27-4.9 1.27-1.25 0-2.48-0.27-1.22-0.28-2.3-0.75-1.07-0.48-1.9-1.1-0.82-0.63-1.17-1.33 0-0.6 0.7-1.05 0.6 0.55 1 0.85t0.77 0.5q0.38 0.2 0.8 0.25 0.43 0.05 0.98 0.05 2.85 0 5.57-1.67 2.73-1.68 5.15-4.75 2.43-3.08 4.43-7.45 1.99-4.38 3.4-9.78-0.66 1-1.6 2.45-0.95 1.45-2.1 2.87-1.15 1.43-2.38 2.58-1.22 1.15-2.37 1.55-0.8-0.05-1.68-0.32-0.87-0.28-1.65-0.78-0.77-0.5-1.37-1.2t-0.8-1.6q0-1.45 0.1-2.33 0.1-0.87 0.35-1.92 0.45-1.9 1.32-4.3 0.88-2.4 2.05-4.73 1.18-2.32 2.6-4.35 1.43-2.02 2.98-3.17 0.4 0 1 0.07 0.6 0.08 1.25 0.28 0.64 0.2 1.25 0.47 0.6 0.28 1.05 0.73-0.55 0.5-2.4 3.35t-4.1 8.2q-0.25 0.55-0.6 1.6t-0.68 2.2q-0.32 1.15-0.57 2.25t-0.25 1.75q0 0.4 0.12 0.6 0.13 0.2 0.23 0.3 0.9-0.15 2.4-1.48 1.5-1.32 3.4-4.12 1.2-1.8 2.2-3.58 1-1.77 1.97-3.57 0.98-1.8 2.03-3.7t2.25-3.9q0.65 0 1.4 0.15t1.45 0.37q0.7 0.23 1.22 0.5 0.53 0.28 0.78 0.58-1.55 3.3-2.9 6.45t-2.4 6.45zm5.59 4.55q0-2.2 1.05-6.18 1.05-3.97 2.95-9.27 3.1-8.45 5.83-14.08 2.72-5.62 5.32-8.77 0.6 0.1 1.48 0.5 0.87 0.4 1.72 0.87 0.85 0.48 1.53 0.98 0.67 0.5 0.87 0.8-3.9 4.6-6.85 9.9t-5.4 12.15q-2.1 5.9-3.2 10.62-1.1 4.73-1.1 7.88 0 0.85 0 1.05t0.05 0.4q-0.7-0.1-1.2-0.35t-0.65-0.6q-0.1-0.25-0.55-0.72-0.45-0.48-0.8-0.73-0.45-0.3-0.75-1.58-0.3-1.27-0.3-2.87zm29.55-17.5q-0.2 3.1-1.1 5.32-0.9 2.23-2.57 3.9-1.68 1.68-4.08 3.03t-5.6 2.6q0 0.3-0.02 0.62-0.03 0.33-0.03 0.68 0 0.65 0.1 1.35t0.35 1.3 0.7 0.97q0.45 0.38 1.15 0.38 1.35 0 2.65-0.6t2.48-1.48q1.17-0.87 2.2-1.9 1.02-1.02 1.82-1.87 0.5 0.45 0.85 0.85-2.25 3-4.92 4.97-2.68 1.98-5.08 2.53-3.45-0.4-5.37-2.53-1.93-2.12-1.93-5.12 0-2.05 0.58-4.18 0.57-2.12 1.6-4.1 1.02-1.97 2.4-3.72 1.37-1.75 2.95-3.05 1.57-1.3 3.25-2.05 1.67-0.75 3.32-0.75 2.3 0.3 4.3 2.85zm-3.45 1.65q-1.35 0.2-2.8 1.1t-2.72 2.4q-1.28 1.5-2.33 3.5t-1.65 4.3q4-2 6.65-4.93 2.65-2.92 2.85-6.37zm3.95 18.35q0-0.8 1.4-2.58 1.4-1.77 3.72-4.05 2.33-2.27 5.35-4.8 3.03-2.52 6.28-4.87-2.1-0.45-3.33-0.65-1.22-0.2-1.97-0.2-1.45 0-2.6 0.4t-2.25 1.3q-2.3-2-2.3-4.6 0-0.8 0.05-0.95 0.85-0.85 2.02-1.3 1.18-0.45 2.48-0.45 1.4 0 2.85 0.45t2.85 0.97q1.4 0.53 2.62 0.98 1.23 0.45 2.18 0.45 0.55 0 1.22-0.15 0.68-0.15 1.13-0.4 0.45 0.35 0.82 1.4 0.38 1.05 0.38 2.05-1.55 0.6-3.73 2.1-2.17 1.5-4.42 3.45t-4.38 4.15q-2.12 2.2-3.52 4.15 1.05 0.45 2.85 0.45 1.15 0 2.35-0.2t2.32-0.55q1.13-0.35 2.08-0.83 0.95-0.47 1.6-1.02 2.35 1.5 2.35 4.4 0 0.4-0.03 0.65-0.02 0.25-0.07 0.6-2.3 1.45-5 1.45-1.35 0-2.7-0.27-1.35-0.28-2.63-0.58-1.27-0.3-2.4-0.58-1.12-0.27-2.07-0.27-2.4 0-3.9 2.25-0.65-0.25-1.08-0.9-0.42-0.65-0.52-1.45zm44-7.05q-1.15 3.65-2.3 6.65t-2.45 5.52q-1.3 2.53-2.8 4.66-1.5 2.12-3.3 4.02-2.3 2.4-4.75 3.68-2.45 1.27-4.9 1.27-1.25 0-2.48-0.27-1.22-0.28-2.3-0.75-1.07-0.48-1.9-1.1-0.82-0.63-1.17-1.33 0-0.6 0.7-1.05 0.6 0.55 1 0.85t0.77 0.5q0.38 0.2 0.8 0.25 0.43 0.05 0.98 0.05 2.85 0 5.57-1.67 2.73-1.68 5.15-4.75 2.43-3.08 4.43-7.45 2-4.38 3.4-9.78-0.65 1-1.6 2.45t-2.1 2.87q-1.15 1.43-2.38 2.58-1.22 1.15-2.37 1.55-0.8-0.05-1.68-0.32-0.87-0.28-1.65-0.78-0.77-0.5-1.37-1.2t-0.8-1.6q0-1.45 0.1-2.33 0.1-0.87 0.35-1.92 0.45-1.9 1.32-4.3 0.88-2.4 2.05-4.73 1.18-2.32 2.6-4.35 1.43-2.02 2.98-3.17 0.4 0 1 0.07 0.6 0.08 1.25 0.28t1.25 0.47q0.6 0.28 1.05 0.73-0.55 0.5-2.4 3.35t-4.1 8.2q-0.25 0.55-0.6 1.6t-0.68 2.2q-0.32 1.15-0.57 2.25t-0.25 1.75q0 0.4 0.12 0.6 0.13 0.2 0.23 0.3 0.9-0.15 2.4-1.48 1.5-1.32 3.4-4.12 1.2-1.8 2.2-3.58 1-1.77 1.97-3.57 0.98-1.8 2.03-3.7t2.25-3.9q0.65 0 1.4 0.15t1.45 0.37q0.7 0.23 1.22 0.5 0.53 0.28 0.78 0.58-1.55 3.3-2.9 6.45t-2.4 6.45z" fill="#fff" data-fill-palette-color="primary"/>
</svg>
</g>
</svg>
</svg>
</svg>
</g>
<g transform="translate(203.71)">
<svg width="78.149" height="83.164" viewBox="0 0 78.14893260028819 83.1643957894737">
<svg class="icon-icon-0" width="78.149" height="83.164" clip-rule="evenodd" fill-rule="evenodd" image-rendering="optimizeQuality" shape-rendering="geometricPrecision" text-rendering="geometricPrecision" data-fill-palette-color="accent" version="1.1" viewBox="3068.828369140625 1340.4300537109375 53862.359375 57319.15234375" xml:space="preserve" xmlns="http://www.w3.org/2000/svg" xmlns:xlink="http://www.w3.org/1999/xlink"><g fill="#00d1cd" data-fill-palette-color="accent"><path class="" d="m53945 46756c-1836.1 2964.3-3604.2 5252.6-5794.2 6938.1-2240.9 1724.7-4904.7 2804.7-8505.8 3312.3-432.1 60.91-869.21 113.05-1354.5 156.01-477.58 42.28-1031.4 77.88-1712.9 107.11h-31.26c-655.26-27.68-1185.6-61.06-1642.3-100.43-462.08-39.84-879.23-88.23-1293.6-144.67-3646.2-496.72-6336.7-1571.5-8595.6-3298-2209.1-1688.4-3988-3987.1-5835.9-6970.5-66.09-6.88-135.57-13.71-212.99-21.3h-1.56c-801.46-78.64-2268.9-222.63-2531.2-470.93-120.73-114.27-191.09-248.39-222.12-388.8-33.2-150.26-19.33-302.73 26.45-440.64 42.88-129.23 115.84-249.11 204.56-342.85 102.57-108.35 230.8-187.29 368.77-217.78 184.3-40.73 763.3 162.58 1352.4 423.83 305.66 135.55 626.45 287.35 897.47 425.04 2046.2-586.02 4723.9-2507.9 7011-4149.7 1772.9-1272.7 3318.1-2381.8 4259.2-2637.9 1487-505.19 2603.2-1.91 3775.4 526.68 784.62 353.82 1597.2 720.26 2535.2 739.05 942.41-18.88 1727.6-387.83 2481.4-742.08 1124.4-528.45 2187-1027.7 3670.5-523.64 941.01 256.17 2486.2 1365.3 4259.1 2637.9 2287.1 1641.8 4964.7 3563.7 7011 4149.7 271.02-137.69 591.81-289.49 897.47-425.04 589.06-261.25 1168.1-464.56 1352.4-423.83 137.99 30.52 266.22 109.44 368.77 217.79 88.71 93.71 161.67 213.61 204.57 342.85 45.77 137.92 59.66 290.38 26.44 440.63-31.03 140.41-101.38 274.51-222.12 388.8-262.33 248.3-1729.7 392.29-2531.2 470.93h-1.56c-77.42 7.59-146.9 14.42-212.99 21.3zm-50273-38733c-188.98 113.04-433.84 51.48-546.88-137.5s-51.48-433.84 137.5-546.88c1549.6-930.08 3078.8-1891.6 4579.5-2880.5 1491.2-982.66 2964-1998.4 4410.6-3043.3 178.63-128.57 427.68-88 556.25 90.63s88 427.68-90.63 556.25c-1448.8 1046.5-2931 2068.5-4438.7 3062-1522.1 1003-3060.6 1970.8-4607.6 2899.3zm190.41 7153.9c-201.93 88.02-436.99-4.32-525.01-206.25s4.32-436.99 206.25-525.01c3392.7-1475.6 6955.7-3440.9 10287-5687.5 3176.6-2142.1 6137-4536.1 8531.4-7000.4 153.6-157.92 406.15-161.41 564.07-7.81s161.41 406.15 7.81 564.07c-2436.4 2507.6-5439.7 4937.5-8656.4 7106.6-3367.3 2270.7-6974.8 4259.8-10415 5756.2zm220.09 7136.7c-205.38 79.39-436.24-22.75-515.63-228.13s22.75-436.24 228.13-515.63c5237.9-2018.2 10828-4980.7 15969-8472.2 4884.9-3317.5 9362.8-7111.5 12745-11025 144.11-166.54 395.96-184.73 562.5-40.62s184.73 395.96 40.62 562.5c-3427.4 3965.2-7959.9 7806.3-12902 11162-5192 3526.1-10838 6518.1-16128 8556.6zm227.92 7133.6c-207.1 75.07-435.87-31.96-510.94-239.06s31.96-435.87 239.06-510.94c7079.9-2558.7 14698-6519.7 21654-11260 6601.5-4498.8 12601-9695.8 16971-15057 138.93-170.86 390.08-196.75 560.94-57.82s196.75 390.08 57.82 560.94c-4421.4 5424.8-10480 10675-17140 15213-7009.4 4776.8-14690 8769.6-21833 11351zm36737-2504.1c130.04-111.86 256.17-227.37 379.77-346.28l-346.96-360.02c-116.87 112.42-236.1 221.64-359.05 327.4l326.24 378.9zm-3782.2 1547.5c174.06-4.16 348.57-17.24 521.46-37.67l-59.42-496.46c-157.78 18.61-316.76 30.51-475.6 34.31l13.56 499.82zm2033.8-440.8c159.94-67.34 318.21-143.12 471.42-224.62l-235.36-441.14c-139.9 74.53-284.99 143.85-431.08 205.36l195.02 460.4zm-6574.9-1485.6c-122.95-105.76-242.18-214.98-359.05-327.4l-346.96 360.02c123.6 118.91 249.73 234.42 379.77 346.28l326.24-378.9zm3469.5 1426.6c-158.84-3.8-317.83-15.7-475.6-34.31l-59.42 496.46c172.9 20.43 347.4 33.51 521.46 37.67l13.56-499.82zm-1852.4-401.38c-146.09-61.51-291.18-130.83-431.08-205.36l-235.36 441.14c153.21 81.5 311.48 157.28 471.42 224.62l195.02-460.4zm9750.6-3918c-207.96-71.62-318.49-298.29-246.87-506.25s298.29-318.49 506.25-246.87c1145.2 396.9 2131.7 1239.8 2738.5 2292.6 320.54 556.18 536.37 1169.9 615.4 1806.9 79.5 640.73 21.1 1307.8-207.48 1967.4-384.32 1108.9-1248.8 2182.1-2748.4 3046.3-190.7 109.59-434.16 43.83-543.75-146.87s-43.83-434.16 146.87-543.75c1316.4-758.66 2067.2-1677.5 2392.1-2615.1 185.63-535.61 232.45-1082.3 166.84-1611.1-66.08-532.63-245.74-1044.4-512.26-1506.9-513.37-890.75-1344.6-1602.7-2307.2-1936.3zm-1228.4 7580c-105.77 110.71-225.52 206.97-355.09 289.79-384.99 246.09-856.39 368.27-1291 395.04l-99.05 5.93c-731.89 43.21-1612.1 95.4-2580.9 1256.3-210.8 339.43-451.3 621.82-755.7 796.27-258.55 148.19-957.64 213.88-1602.8 181.09-586.71-29.82-1170.3-143.8-1417.4-355.07-193.97-165.8-360.03-379.02-510.76-621.26-969.07-1161.9-1849.6-1214.1-2581.7-1257.4l-99.05-5.93c-434.62-26.77-906.02-148.95-1291-395.04-129.57-82.82-249.33-179.09-355.1-289.79-3.1 27.39-5.5 55.29-7.17 83.71-12.94 220.05-201.83 387.94-421.88 375s-387.94-201.83-375-421.88c17.97-305.69 92.44-579.16 211.07-819.74 215.33-436.74 571.23-755.93 996.18-957.3 407.37-193.04 879.4-276.25 1347.8-248.7 381.53 22.44 763.54 118.56 1108.9 288.85 792.36 390.72 1219.2 1317.6 1628.8 2207 275.84 598.98 542.72 1178.5 867.68 1456.2 102.05 87.23 500.7 142.32 936.19 164.45 517.59 26.3 1033.2-0.44 1168.4-77.97 379.61-217.56 678.93-867.5 989.87-1542.7 409.57-889.36 836.41-1816.2 1628.8-2207 345.36-170.27 727.36-266.41 1108.9-288.85 468.45-27.55 940.48 55.66 1347.8 248.7 424.95 201.37 780.85 520.56 996.18 957.3 118.62 240.58 193.09 514.05 211.07 819.74 12.94 220.05-154.95 408.94-375 421.88s-408.94-154.95-421.88-375c-1.67-28.42-4.08-56.32-7.18-83.71zm-783.21-382.09c162.43-103.82 295.95-241.9 373.45-419.06-98.89-86.75-211.68-159.2-334.05-217.18-285.91-135.48-622.38-193.58-960.35-173.7-278.37 16.37-554.98 85.48-802.66 207.59-398.34 196.42-702.68 683.4-976.56 1232.9 615.5-290.92 1182.9-324.55 1691.4-354.57l99.05-5.93c314.7-19.38 648.66-103.13 909.77-270.04zm-8673 630.54c-273.88-549.49-578.21-1036.5-976.54-1232.9-247.68-122.12-524.3-191.22-802.66-207.59-337.97-19.88-674.44 38.22-960.35 173.7-122.37 57.98-235.16 130.43-334.05 217.18 77.5 177.16 211.02 315.24 373.45 419.06 261.11 166.91 595.07 250.66 909.77 270.04l99.05 5.93c508.41 30.02 1075.8 63.62 1691.3 354.57zm-7161.6-5311.8c5.05 49.43 0.89 100.63-13.79 151.29-271.02 930.63-306.57 1922.3 109.72 2852.2 352.46 787.38 1032.4 1542.9 2171.5 2199.4 190.7 109.59 256.46 353.05 146.87 543.75s-353.05 256.46-543.75 146.87c-1299.9-749.19-2085.3-1632.5-2502.7-2565-408.38-912.29-461.08-1860.1-296.04-2770.6-6878.7 4094.6-14032 7490-20778 9833.3-207.96 71.62-434.63-38.91-506.25-246.87s38.91-434.63 246.87-506.25c8922.4-3099.1 18570-8059.1 27343-14049 8315.9-5678.7 15838-12280 21199-19095 136.34-173.45 387.49-203.52 560.94-67.18s203.52 387.49 67.18 560.94c-5412 6879.5-12997 13538-21377 19260-1906.2 1301.7-3854 2555.1-5827 3751.9zm4634.8 31144c-154.13-54.57-307.21-112.81-459.16-173.19l-185.08 464.48c157.68 62.64 316.48 123.09 476.42 179.71l167.82-471zm11612-286c-153.43 56.41-307.76 109.24-463.18 159.88l153.58 475.82c161.58-51.88 322.76-107.82 482.04-166.38l-172.44-469.32zm-1888.7 551.85c-160.57 37.28-321.37 72.53-482.71 106.32l101.72 489.54c165.05-34.44 329.63-70.63 493.87-108.76l-112.88-487.1zm-1944.2 360.78c-163.26 22.83-326.49 44.03-490.18 63.57l58.32 496.58c167.47-19.97 334.47-41.68 501.5-65.03l-69.64-495.12zm-1966.5 185.44c-164.2 7.22-328.24 12.03-492.57 14.66l7.34 499.94c169.1-2.62 337.99-7.65 506.95-15.08l-21.72-499.52zm-1969.3-39.65c-164.13-11.9-327.93-26-491.69-42.14l-49.48 497.54c168.04 16.64 336.21 31.05 504.63 43.26l36.54-498.66zm-1951.7-254.91c-160.76-31.61-320.77-65.95-480.33-103.14l-114.02 486.82c165.18 38.53 330.88 74.1 497.31 106.82l97.04-490.5zm-299.67-10392c-38.51-3.49-75.23-12.36-109.51-25.78-1791-69.42-3625.7 21.93-5344.4 107.53-2583.3 128.66-4912.2 244.48-6533.5-216.01 1580.4 2430.1 3142.9 4338.6 5013.2 5768 2147.7 1641.5 4719.2 2665.2 8217.5 3141.7 379.88 51.75 780.27 97.66 1252.9 138.41 473.94 40.86 990.86 74.16 1592.2 99.76 624.12-26.98 1163.5-62.49 1659.8-106.44 492.71-43.61 913.68-93.33 1313.9-149.75 3454.5-486.96 5999.2-1514.8 8127.7-3152.9 1853-1426.1 3404.9-3325.2 4974.6-5738.8-1621.3 460.5-3950.2 344.67-6533.5 216-1721.2-85.73-3558.7-177.22-5351.1-107.48-34.25 13.4-70.94 22.26-109.41 25.74-890.92 81.69-1450 370.8-1973.5 641.48-607.55 314.15-1173.2 606.65-2110.2 610.39h-3.12c-936.95-3.74-1502.6-296.24-2110.2-610.39-523.48-270.68-1082.6-559.79-1973.5-641.48zm2976.8 236.14c319.9 128.06 669.07 216.88 1108.5 218.84 442.37-1.98 793.27-92 1114.9-221.45-866.05 79.15-1309.5 84.03-2223.4 2.61zm17717-1433.9c-2053.1-790.72-4478.2-2531.4-6580.9-4040.8-1718.3-1233.4-3214.5-2307.5-4014.4-2517.8l-26.57-7.81c-1186.8-406.01-2109.2 27.5-3085.5 486.32-830.32 390.21-1695.2 796.69-2812.6 817.23h-12.5c-1110.6-20.41-1999.2-421.11-2857-807.96-1027.2-463.21-2005.2-904.26-3199.8-495.59l-26.57 7.81c-799.83 210.3-2296.1 1284.4-4014.4 2517.8-2102.7 1509.4-4527.7 3250.1-6580.9 4040.8 1364.8 764.46 4014 632.66 7025.6 482.67 2284.8-113.8 4771.9-237.67 7124.2 12.47 2404.9 255.74 2433.2 252.85 4405.8 51.25 153.48-15.68 322.99-33.01 637.4-64.54 2314.8-232.17 4751-110.83 6992.5 0.81 3011.6 150 5660.8 281.79 7025.6-482.66zm2789.7-529.71c87.87-14.4 149.63-27.53 175.4-38.71l-2.45-7.8c-2.84-8.57-6.41-16.62-10.5-23.95-28.83 12.14-85.37 36.68-162.45 70.46zm-38790 0c-77.06-33.76-133.62-58.32-162.43-70.46-4.09 7.32-7.64 15.38-10.48 23.94l-2.45 7.81c25.81 11.18 87.48 24.3 175.36 38.71z" fill="#00d1cd" fill-rule="nonzero" data-fill-palette-color="accent"/></g></svg>
</svg>
</g>
</svg>
</svg>
</svg>
</g>
</svg>
</svg>
<rect width="320" height="360" fill="none" visibility="hidden"/>
</g>
</svg>
</g>
</svg>
